<?xml version="1.0" standalone="no"?>
<!DOCTYPE svg PUBLIC "-//W3C//DTD SVG 20010904//EN"
 "http://www.w3.org/TR/2001/REC-SVG-20010904/DTD/svg10.dtd">
<svg version="1.0" xmlns="http://www.w3.org/2000/svg"
 width="128.000000pt" height="128.000000pt" viewBox="0 0 128.000000 128.000000"
 preserveAspectRatio="xMidYMid meet">
<metadata>
Created by potrace 1.11, written by Peter Selinger 2001-2013
</metadata>
<g transform="translate(0.000000,128.000000) scale(0.100000,-0.100000)"
fill="#000000" stroke="none">
<path d="M510 1212 c0 -59 0 -59 -39 -77 -49 -22 -105 -79 -126 -127 -20 -50
-19 -124 4 -173 18 -40 83 -112 134 -150 l28 -20 -3 -185 -3 -185 -28 57 c-16
31 -36 63 -45 72 -28 24 -68 27 -96 5 -50 -39 -42 -120 17 -177 31 -30 124
-82 146 -82 7 0 11 -28 11 -80 l0 -80 48 0 47 0 -1 71 c-1 70 -1 70 25 67 24
-3 26 -7 28 -58 1 -30 2 -61 2 -67 1 -9 17 -13 46 -13 l45 0 0 78 0 78 54 23
c71 29 139 95 159 155 18 52 16 146 -4 191 -20 44 -75 101 -146 152 l-63 45 0
140 0 140 48 -51 c41 -44 52 -50 77 -45 63 10 84 79 43 141 -16 23 -47 46 -96
70 -72 34 -73 36 -72 72 4 71 4 71 -45 71 l-45 0 0 -50 c0 -48 -1 -50 -28 -50
-26 0 -29 3 -29 38 0 20 -1 43 -2 50 -1 7 -17 12 -46 12 l-45 0 0 -58z m150
-277 c0 -80 -2 -145 -5 -145 -3 0 -16 7 -29 15 -23 15 -23 20 -23 145 l1 130
28 0 28 0 0 -145z m-150 38 l0 -78 -20 30 c-24 36 -25 73 -4 103 8 12 17 22
20 22 2 0 4 -35 4 -77z m149 -565 c-1 -100 -5 -168 -11 -168 -5 0 -17 4 -27
10 -16 8 -18 26 -18 184 l0 175 28 -16 28 -17 0 -168z m140 65 c41 -50 41 -96
1 -151 -17 -23 -35 -42 -40 -42 -6 0 -10 45 -10 115 0 64 4 115 9 115 5 0 23
-17 40 -37z"/>
</g>
</svg>
